<svg width="128" height="64" viewBox="0 0 128 64" fill="none" xmlns="http://www.w3.org/2000/svg">
<path d="M120.488 23.0254C123.082 23.0254 124.983 23.9501 126.19 25.7994C127.397 27.6487 128.001 30.2557 128.001 33.6205C128.001 36.8055 127.307 39.374 125.92 41.326C124.533 43.2781 122.568 44.2541 120.025 44.2541C117.765 44.2541 115.993 43.4836 114.709 41.9425V63.2322H111.164V23.4877H114.208L114.477 26.2232C115.222 25.1958 116.121 24.4124 117.174 23.873C118.227 23.3079 119.332 23.0254 120.488 23.0254ZM119.178 41.3646C122.517 41.3646 124.186 38.7832 124.186 33.6205C124.186 28.4321 122.658 25.8379 119.602 25.8379C118.6 25.8379 117.688 26.1333 116.866 26.724C116.044 27.3148 115.325 28.0725 114.709 28.9972V38.8988C115.222 39.695 115.864 40.3115 116.635 40.7481C117.406 41.1591 118.253 41.3646 119.178 41.3646Z" fill="#2A9094"/>
<path d="M99.4238 19.4813C99.4238 18.8649 99.6165 18.364 100.04 17.9787C100.426 17.5935 101.003 17.3623 101.697 17.3623C102.313 17.3623 102.853 17.5935 103.277 17.9787C103.662 18.364 103.893 18.8649 103.893 19.4813C103.893 20.0978 103.662 20.6372 103.277 21.0224C102.853 21.4462 102.313 21.6389 101.697 21.6389C101.003 21.6389 100.464 21.4462 100.04 21.0224C99.6165 20.6372 99.4238 20.0978 99.4238 19.4813ZM103.546 24.5285V43.7923H99.8862V24.5285H103.546Z" fill="#2A9094"/>
<path d="M78.3098 22.7561C78.3098 20.5215 79.0419 18.7492 80.5444 17.5163C82.047 16.2834 83.9734 15.667 86.2851 15.667C88.9049 15.667 91.4478 16.2449 93.875 17.4007V20.7912C91.2551 19.4812 88.7894 18.8263 86.5162 18.8263C85.0522 18.8263 83.9734 19.173 83.2799 19.828C82.5864 20.5215 82.2397 21.4076 82.2397 22.5249C82.2397 23.5266 82.6635 24.4128 83.5111 25.1833C84.3587 25.9539 85.3604 26.6474 86.5933 27.2638C87.7876 27.8803 88.982 28.5738 90.2149 29.3058C91.4478 30.0378 92.488 31.001 93.3356 32.2339C94.1832 33.4668 94.607 34.8538 94.607 36.4719C94.607 38.8606 93.8365 40.71 92.2954 42.097C90.7543 43.484 88.6738 44.1775 85.9768 44.1775C82.9717 44.1775 80.3518 43.5995 78.1172 42.4437V38.9377C80.8141 40.3247 83.3955 40.9797 85.8613 40.9797C89.0205 40.9797 90.6387 39.5927 90.6387 36.8187C90.6387 35.7399 90.2149 34.7382 89.3673 33.8906C88.5197 33.043 87.4794 32.3109 86.2851 31.6945C85.0522 31.0781 83.8578 30.4231 82.6635 29.7296C81.4306 29.0361 80.4289 28.0729 79.5812 26.8785C78.7336 25.7227 78.3098 24.3357 78.3098 22.7561Z" fill="#2A9094"/>
<path d="M72.1275 0V39.7082C72.1275 40.4017 72.2045 40.9026 72.4357 41.1723C72.6283 41.442 72.9365 41.5576 73.3989 41.5576C73.7456 41.5576 74.1694 41.4805 74.6703 41.3264V43.7536C73.8997 44.0619 72.9751 44.1774 71.9733 44.1774C70.8946 44.1774 70.047 43.9077 69.4305 43.3684C68.8141 42.829 68.5059 41.9814 68.5059 40.9026L68.5059 0H72.1275Z" fill="#1E5C6C"/>
<path d="M53.5703 27.1098V25.4916L55.8049 24.5285L58.0395 20.5986H59.465V24.5285H63.7031V27.1098H59.465V39.2075C59.465 39.9395 59.6192 40.4789 59.9274 40.8257C60.2356 41.1724 60.775 41.3265 61.5455 41.3265C62.3931 41.3265 63.2022 41.1724 63.8957 40.8642V43.5996C62.8555 43.9849 61.7767 44.1776 60.6209 44.1776C58.9642 44.1776 57.7313 43.8308 56.9608 43.1373C56.1902 42.4438 55.8049 41.288 55.8049 39.6698V27.1098H53.5703Z" fill="#1E5C6C"/>
<path d="M43.987 24.5288L44.1797 27.6881H44.2567L45.9519 25.3379C46.8766 24.5674 47.9554 24.1436 49.2268 24.1436C49.8432 24.1436 50.4982 24.2591 51.1917 24.4132L49.9588 27.7266C49.4194 27.611 48.9186 27.534 48.3792 27.534C46.8381 27.534 45.4125 28.266 44.1797 29.653V43.7927H40.5195V24.5288H43.987Z" fill="#1E5C6C"/>
<path d="M22.7329 24.5283V38.0515C22.7329 40.1706 23.7346 41.2108 25.8151 41.2108C27.2021 41.2108 28.7818 40.6714 30.477 39.5926V24.5283H34.1371V43.7922H30.6696L30.477 41.4034H30.3999L28.5121 43.1372C27.2021 43.8307 25.8922 44.1774 24.5052 44.1774C22.887 44.1774 21.5771 43.7151 20.5754 42.7904C19.5737 41.8658 19.1113 40.5173 19.1113 38.745V24.5283H22.7329Z" fill="#1E5C6C"/>
<path d="M6.85792 43.7917V19.2881H0V16.0518H17.5686V19.2881H10.7107V43.7917H6.85792Z" fill="#1E5C6C"/>
</svg>
